<?xml version="1.0" encoding="UTF-8"?>
<svg xmlns="http://www.w3.org/2000/svg" version="1.1" viewBox="0 0 327 24" fill="none" width="327" height="24">
	<path fill="#00458b" d="M47.07,2h-10.43c-4.88,0-7.09,3.15-7.7,5.4l-4.13,15.42h1.61c2.23,0,3.86-.68,4.23-1.94.86-3.21,2.58-9.59,3.44-12.82.34-1.25,1.61-1.92,2.48-1.92h7.65c1.32,0,2.96.22,2.22,2.66-.41,1.45-1.71,2.18-3.91,2.18h-3.43c-2.25,0-3.9.7-4.25,1.99l-.59,2.17h7.43c4.58,0,8.62-.97,10.1-6.5,1.25-4.68-.96-6.66-4.72-6.66h0Z"/>
	<path fill="#00458b" d="M67.12,1h-1.07c-6.01,0-11.96,3.98-13.51,9.79l-.65,2.42c-1.56,5.81,2.25,9.79,8.26,9.79h1.07c7.04,0,11.96-3.98,13.52-9.79l.65-2.42c1.56-5.81-2.25-9.79-8.27-9.79ZM69.76,11.65l-.24.85c-1.13,4.18-4.46,6.44-7.21,6.44h-1.04c-2.74,0-4.88-2.26-3.75-6.44l.23-.85c1.12-4.18,4.46-6.44,7.21-6.44h1.04c2.74,0,4.88,2.26,3.76,6.44Z"/>
	<path fill="#00458b" d="M19.51,10.14h-7.24c-1.96,0-2.88-.38-2.38-2.07.41-1.45,1.64-1.91,3.84-1.91h9.13c2.25,0,3.9-.7,4.25-1.99l.59-2.17h-13.14c-4.57,0-8.64,1.05-10.03,6.23-.97,3.59.79,6.08,4.88,6.06h7.23c2.02,0,2.86.43,2.35,2.18-.41,1.45-1.71,2.18-3.92,2.18H5.84c-2.25,0-3.9.7-4.25,1.99l-.59,2.18h13.25c4.95,0,8.67-1.17,10.1-6.5,1.13-4.2-1.26-6.19-4.84-6.19Z"/>
	<path fill="#f29600" d="M90.81,7.25c-.03,2.83.2,6.15.44,8.21.1.96.76.69,1.09-.06,1.5-3.54,3.08-8.82,3.98-11.82.3-1.02,1.61-1.73,2.88-1.57,1.1.14,1.98.88,1.63,2.09-1.59,5.38-5.61,15.08-7.24,17.04-.63.77-1.87,1.81-3.57,1.81s-2.37-1.1-2.51-1.9c-.22-1.16-.4-3.54-.53-6.04-1.38,2.5-2.72,4.73-3.55,6.02-.53.79-1.76,1.92-3.41,1.92-1.54,0-2.57-.91-2.73-1.87-.48-2.09.04-12.17.75-16.92.18-1.29,1.57-2.04,2.69-2.14,1.23-.11,2.27.38,2.11,1.67-.26,2.19-1.17,8.29-1.4,12.14-.04.74.48.71.88,0,1.74-3.21,4.27-9.04,5.1-11.56.43-1.32,1.64-1.76,2.71-1.76,1.39.06,1.85,1.07,1.64,1.95-.23.82-.58,1.78-.98,2.77v.02Z"/>
	<path fill="#f29600" d="M113.69,19.26c.04,1.29-1.03,2.31-2.01,2.72-1.87.79-4.54.96-6.33.96-1.89,0-4.03-.35-5.08-.88-.7-.36-1.62-1.1-1.56-2.42.12-2.28,3.06-13.77,3.82-15.64.45-1.16,1.78-2.01,2.55-2.01h10.49c.91,0,1.66.82,1.31,2.28-.28,1.18-1.25,2.31-2.49,2.31h-7.36c-.58,0-.73.52-.76.66-.74,2.47-2.04,7.3-2.52,9.83-.12.58.11.91.61.99.63.14,1.41.2,2.26.2,1.57,0,3.22-.14,4.75-.55,1.21-.33,2.28.22,2.31,1.54h.02ZM107.04,14.43c-.82,0-1.43-.99-1.12-2.28.28-1.18,1.42-2.33,2.27-2.33h5.33c.74,0,1.5.85,1.15,2.28-.28,1.18-1.28,2.33-2.3,2.33h-5.33Z"/>
	<path fill="#f29600" d="M120.88,17.16c-.12.5.07.85.51.93.63.14,1.44.2,2.31.2,1.6,0,2.96-.2,4.06-.58,1.17-.41,2.57.06,2.49,1.63,0,1.16-.72,2.17-1.68,2.63-1.8.85-4.31.99-6.09.99-1.92,0-3.83-.3-5.11-.88-.71-.33-1.63-1.1-1.55-2.42.12-2.28,3.21-14.15,3.99-16.18.43-1.07,1.89-1.64,3.06-1.43,1.4.22,1.69,1.26,1.47,1.95-.52,1.57-2.8,9.78-3.47,13.16h0Z"/>
	<path fill="#f29600" d="M136.7,17.16c-.12.5.07.85.51.93.63.14,1.44.2,2.31.2,1.6,0,2.96-.2,4.06-.58,1.18-.41,2.57.06,2.49,1.63,0,1.16-.73,2.17-1.68,2.63-1.8.85-4.31.99-6.09.99-1.92,0-3.83-.3-5.11-.88-.72-.33-1.62-1.1-1.56-2.42.12-2.28,3.21-14.15,3.99-16.18.43-1.07,1.89-1.64,3.07-1.43,1.4.22,1.69,1.26,1.47,1.95-.52,1.57-2.8,9.78-3.47,13.16h.02Z"/>
	<path fill="#252f3e" d="M155.92,11.33c.3,1.01.76,1.92,1.37,2.74.61.82,1.37,1.48,2.28,1.97l-1.38,1.84c-.91-.49-1.68-1.15-2.33-2s-1.16-1.82-1.53-2.92c-.37,1.2-.88,2.26-1.53,3.18-.65.93-1.43,1.66-2.35,2.21l-1.45-1.89c.91-.53,1.68-1.24,2.3-2.12.62-.88,1.08-1.85,1.38-2.9.3-1.05.45-2.14.45-3.25v-.63h-3.43v-2.02h3.43v-2.83h2.34v2.83h3.37v2.02h-3.37v.63c0,1.08.15,2.12.45,3.13ZM162.55,21.32h-2.34v-9.46h-2.63v-2.07h2.63V2.38h2.34v18.93ZM166.65,22.3h-2.36V2h2.36v20.3Z"/>
	<path fill="#252f3e" d="M186.49,13.59h-4.59v2.11h2.34v6.6h-2.47v-4.65h-11.61v-1.95h2.5v-2.11h-4.52v-2h18.37v2ZM181.12,2.9c1.09.32,1.93.77,2.53,1.37s.9,1.3.9,2.11c0,.82-.31,1.52-.9,2.12-.59.6-1.44,1.06-2.53,1.38-1.09.32-2.37.48-3.83.48s-2.74-.16-3.84-.48c-1.1-.32-1.94-.78-2.54-1.38-.59-.6-.89-1.31-.89-2.12s.3-1.51.89-2.11c.59-.6,1.44-1.05,2.54-1.37,1.1-.32,2.38-.48,3.84-.48s2.74.16,3.83.48ZM173.83,4.9c-.82.35-1.23.84-1.23,1.48,0,.66.4,1.16,1.22,1.52.82.35,1.97.53,3.46.53s2.64-.18,3.47-.53c.83-.35,1.24-.86,1.24-1.52s-.41-1.13-1.24-1.48c-.83-.35-1.98-.52-3.46-.52s-2.63.17-3.46.52ZM179.45,15.7v-2.11h-4.32v2.11h4.32Z"/>
	<path fill="#252f3e" d="M195.48,4c.83.44,1.48,1.04,1.95,1.81.48.77.71,1.64.71,2.61s-.24,1.86-.71,2.63c-.47.77-1.12,1.38-1.95,1.81-.82.43-1.74.65-2.75.65s-1.94-.22-2.77-.65c-.83-.43-1.48-1.04-1.96-1.81-.48-.78-.71-1.65-.71-2.63s.24-1.83.71-2.61c.48-.77,1.13-1.38,1.96-1.81s1.75-.66,2.77-.66,1.93.22,2.75.66ZM191.18,5.89c-.46.24-.82.58-1.08,1.02-.26.44-.39.95-.38,1.52,0,.58.12,1.1.38,1.54.26.44.62.78,1.08,1.02.46.24.98.36,1.55.36s1.06-.12,1.52-.36c.45-.24.81-.58,1.08-1.02s.4-.95.4-1.54-.13-1.07-.4-1.52-.62-.78-1.08-1.02c-.45-.24-.96-.36-1.52-.36s-1.09.12-1.55.36ZM204.28,21.9h-13.89v-6.69h2.5v4.67h11.39v2.02ZM203.72,16.69h-2.5V2.02h2.5v14.67Z"/>
	<path fill="#252f3e" d="M224.11,14.22h-18.37v-2h7.91v-1.95h-5.53V2.49h2.45v2.02h8.69v-2.02h2.45v7.77h-5.57v1.95h7.96v2ZM221.86,22.3h-2.47v-4.49h-11.61v-1.98h14.09v6.47ZM219.28,8.27v-1.89h-8.69v1.89h8.69Z"/>
	<path fill="#252f3e" d="M232.79,11.08c.42,1.09,1.02,2.07,1.81,2.93.78.86,1.7,1.52,2.76,1.96l-1.36,1.98c-1.17-.5-2.18-1.25-3.04-2.26-.86-1-1.53-2.17-2.01-3.49-.48,1.42-1.15,2.68-2.01,3.78-.87,1.1-1.88,1.92-3.04,2.47l-1.43-1.95c1.03-.48,1.94-1.18,2.73-2.11.78-.93,1.39-1.97,1.81-3.13.42-1.16.63-2.32.63-3.48v-1.71h-4.43v-2.07h11.37v2.07h-4.41v1.71c0,1.12.21,2.22.63,3.31ZM241.32,22.3h-2.5V2h2.5v20.3Z"/>
	<path fill="#252f3e" d="M251.6,11.08c.42,1.09,1.02,2.07,1.81,2.93.78.86,1.7,1.52,2.76,1.96l-1.36,1.98c-1.17-.5-2.18-1.25-3.04-2.26-.86-1-1.53-2.17-2.01-3.49-.48,1.42-1.15,2.68-2.01,3.78-.87,1.1-1.88,1.92-3.04,2.47l-1.43-1.95c1.03-.48,1.94-1.18,2.73-2.11.78-.93,1.39-1.97,1.81-3.13.42-1.16.63-2.32.63-3.48v-1.71h-4.43v-2.07h11.37v2.07h-4.41v1.71c0,1.12.21,2.22.63,3.31ZM260.13,22.3h-2.5V2h2.5v20.3Z"/>
	<path fill="#252f3e" d="M269.14,11.01c2.08-.07,4.06-.23,5.95-.47l.13,1.8c-1.61.27-3.31.46-5.08.58v3.91h-2.47v-3.77c-1.43.06-3.19.09-5.26.09l-.31-2c2.62-.01,4.96-.06,7.04-.13ZM271.26,3.22c.75.3,1.34.73,1.77,1.27.43.54.64,1.17.65,1.87,0,.72-.22,1.35-.65,1.89-.42.54-1.01.95-1.77,1.25-.76.29-1.62.44-2.6.44s-1.86-.15-2.62-.44c-.76-.29-1.35-.71-1.78-1.25-.42-.54-.64-1.17-.64-1.89s.21-1.33.64-1.87c.42-.54,1.02-.97,1.78-1.27s1.64-.45,2.62-.45,1.84.15,2.59.45ZM279.55,21.9h-14.78v-6h2.47v3.97h12.3v2.02ZM266.72,5.07c-.5.31-.74.74-.74,1.29s.25.98.74,1.29c.49.31,1.15.47,1.96.47s1.42-.16,1.91-.47c.49-.31.74-.74.75-1.28,0-.54-.26-.97-.75-1.28-.49-.31-1.13-.47-1.91-.47s-1.46.16-1.96.47ZM279.08,17.39h-2.5v-1.77h-3.95v-1.75h3.95V2.02h2.5v15.36Z"/>
	<path fill="#252f3e" d="M299.41,19.95h-18.41v-2.09h7.91v-4h-6.33v-1.98h2.83v-6.06h-2.9v-2.02h15.29v2.02h-2.94v6.06h2.88v1.98h-6.37v4h8.05v2.09ZM292.41,11.88v-6.06h-4.52v6.06h4.52Z"/>
	<path fill="#252f3e" d="M310.06,5.17h-6.8v1.53h6.2v1.89h-6.2v1.73c1.73,0,3.15-.04,4.26-.1,1.11-.06,2.23-.18,3.37-.35l.2,1.98c-1.24.19-2.46.32-3.67.37-1.2.05-2.9.08-5.09.08h-1.54V3.17h9.27v2ZM316.68,18.73h-10.79v1.46h11.43v1.93h-13.91v-5.21h10.79v-1.35h-10.81v-1.95h13.28v5.12ZM316.68,12.83h-2.47v-4.4h-3.48v-1.98h3.48V2h2.47v10.83Z"/>
</svg>